<?xml version="1.0" encoding="UTF-8"?>
<svg version="1.1" xmlns="http://www.w3.org/2000/svg" width="70" height="70">
<path d="M0 0 C23.1 0 46.2 0 70 0 C70 23.1 70 46.2 70 70 C46.9 70 23.8 70 0 70 C0 46.9 0 23.8 0 0 Z " fill="#2DCB90" transform="translate(0,0)"/>
<path d="M0 0 C10.56 0 21.12 0 32 0 C34.35930891 6.29149042 35.44226441 9.75336136 36 16 C35.34 16 34.68 16 34 16 C34.061875 16.94875 34.12375 17.8975 34.1875 18.875 C34.0946875 20.421875 34.0946875 20.421875 34 22 C33.01 22.66 32.02 23.32 31 24 C31 21.36 31 18.72 31 16 C30.175 16.165 29.35 16.33 28.5 16.5 C23.08936074 15.72705153 20.49898666 11.97854321 17 8 C13.29628964 9.63726252 11.31926706 11.69870391 8.7578125 14.7578125 C7 16 7 16 1 16 C1 21.61 1 27.22 1 33 C4.96 33 8.92 33 13 33 C13 29.7 13 26.4 13 23 C14.32 22.34 15.64 21.68 17 21 C19.36968107 23.36968107 19.37023806 24.12013801 19.5 27.375 C19.37497741 30.90404681 19.21329353 31.7427931 16.875 34.5625 C11.63962138 37.35132154 4.72013931 36.46215695 -1 36 C-2 35 -2 35 -2.11352539 33.14233398 C-2.10828857 32.35157471 -2.10305176 31.56081543 -2.09765625 30.74609375 C-2.09443359 29.89208984 -2.09121094 29.03808594 -2.08789062 28.15820312 C-2.07951172 27.26037109 -2.07113281 26.36253906 -2.0625 25.4375 C-2.05798828 24.53580078 -2.05347656 23.63410156 -2.04882812 22.70507812 C-2.03700225 20.46998686 -2.0205222 18.23502563 -2 16 C-2.66 16 -3.32 16 -4 16 C-3.44226441 9.75336136 -2.35930891 6.29149042 0 0 Z " fill="#02826B" transform="translate(16,9)"/>
<path d="M0 0 C2.94183853 1.30678235 4.77061643 2.64305336 6.875 5.0625 C9.69781366 8.02213371 11.83666336 8.80174587 16 9 C16.33 11.97 16.66 14.94 17 18 C14.69 18 12.38 18 10 18 C9.67 18.66 9.34 19.32 9 20 C12.3 21.98 15.6 23.96 19 26 C18.505 27.485 18.505 27.485 18 29 C13.72573812 28.46571726 10.42838864 26.82401731 6.671875 24.83984375 C5.16289546 23.92518615 5.16289546 23.92518615 4 24 C3.67 21.36 3.34 18.72 3 16 C1.68 16 0.36 16 -1 16 C-1.33 19.3 -1.66 22.6 -2 26 C-5.96 26 -9.92 26 -14 26 C-14 20.39 -14 14.78 -14 9 C-11.69 8.34 -9.38 7.68 -7 7 C-4.76271666 5.35737899 -4.76271666 5.35737899 -3.0625 3.375 C-2.47597656 2.74335938 -1.88945312 2.11171875 -1.28515625 1.4609375 C-0.86105469 0.97882812 -0.43695313 0.49671875 0 0 Z " fill="#2CC68F" transform="translate(31,16)"/>
<path d="M0 0 C2.63007775 1.26111929 5.25376131 2.53324591 7.875 3.8125 C8.99455078 4.34713867 8.99455078 4.34713867 10.13671875 4.89257812 C10.85214844 5.24384766 11.56757812 5.59511719 12.3046875 5.95703125 C13.2944458 6.43619995 13.2944458 6.43619995 14.30419922 6.92504883 C16 8 16 8 18 11 C15.76537994 15.79016959 13.51098025 19.98745115 10 24 C8.02 23.34 6.04 22.68 4 22 C4 19 4 19 6 16 C4.948125 16.5259375 4.948125 16.5259375 3.875 17.0625 C0.28800741 18.2321715 -1.37596742 18.06589194 -5 17 C-7.09535769 15.84086596 -9.08366871 14.59030318 -11.0703125 13.25390625 C-12.98946042 12.00684859 -14.93654708 10.98587195 -17 10 C-17 9.34 -17 8.68 -17 8 C-16.03900391 7.76216797 -16.03900391 7.76216797 -15.05859375 7.51953125 C-14.19363281 7.28621094 -13.32867188 7.05289063 -12.4375 6.8125 C-11.59058594 6.59207031 -10.74367188 6.37164062 -9.87109375 6.14453125 C-6.07350774 4.63066363 -3.26068179 2.46264101 0 0 Z " fill="#F7FCFA" transform="translate(36,39)"/>
<path d="M0 0 C0.99 0.33 1.98 0.66 3 1 C2.34580901 6.06998019 0.1453591 10.41990777 -2 15 C-1.01 15.33 -0.02 15.66 1 16 C0.67 17.98 0.34 19.96 0 22 C-1.92154764 21.0936096 -3.83706654 20.17443196 -5.75 19.25 C-6.81734375 18.73953125 -7.8846875 18.2290625 -8.984375 17.703125 C-11.86694755 16.07514361 -13.80426309 14.45155092 -16 12 C-15.34 11.34 -14.68 10.68 -14 10 C-10.375 10.375 -10.375 10.375 -7 11 C-6.773125 10.29875 -6.54625 9.5975 -6.3125 8.875 C-4.68343133 5.30656387 -2.59359269 2.93485489 0 0 Z " fill="#F7FCFA" transform="translate(55,23)"/>
<path d="M0 0 C1.65 0 3.3 0 5 0 C5 1.98 5 3.96 5 6 C3.35 6 1.7 6 0 6 C0 4.02 0 2.04 0 0 Z " fill="#03846B" transform="translate(20,30)"/>
<path d="M0 0 C1.98 0 3.96 0 6 0 C6 0.99 6 1.98 6 3 C4.02 3.66 2.04 4.32 0 5 C0 3.35 0 1.7 0 0 Z " fill="#139476" transform="translate(38,30)"/>
</svg>
